@startuml Diagrama de estado

[*] --> Inicio
 Inicio--> IniciandoSesion : solicitar de inicio de sesion
 Inicio --> RegistrandoCuenta: solicitar registro

state a <<choice>> 

IniciandoSesion --> a : ingresar datos

a--> SesionActiva : [Si las credenciales son validas]
a--> IniciandoSesion : [Si las credenciales son invalidas]

state b <<choice>>

RegistrandoCuenta --> b : ingresar datos a registrar
 
b--> IniciandoSesion : [Los datos son validos]
b-->RegistrandoCuenta : [Los datos son invalidos]

SesionActiva --> Inicio : cerrar sesion

Inicio --> [*] : salir de la app

SesionActiva --> [*] : cerrar sesion y aplicacion
SesionActiva --> VisualizandoPublicaciones : ver publicaciones
VisualizandoPublicaciones --> SesionActiva : volver
VisualizandoPublicaciones --> EditandoPublicacion : nueva publicacion
EditandoPublicacion --> InfoPublicada : publicar
VisualizandoPublicaciones --> LeyendoPublicacion : ver publicacion concreta
EditandoPublicacion --> VisualizandoPublicaciones : cancelar edicion
SesionActiva --> GestionandoPerfil : actualizar perfil
SesionActiva -> ModeracionPublicaciones: revisar publicacion
ModeracionPublicaciones --> PublicacionPendienteDeRevision: publicacion recibida
PublicacionPendienteDeRevision --> PublicacionAprobada: [Aprobacion]
PublicacionPendienteDeRevision --> PublicacionRechazada: [Rechazo]
SesionActiva --> BuscandoGrupos : buscar grupos extension/estudio
BuscandoGrupos --> VisualizandoGrupo : ver grupo
VisualizandoGrupo --> SolicitandoUnirseAGrupo : unirse a grupo

state c <<choice>>

SolicitandoUnirseAGrupo -> c : solicitud de acceso a grupo
c --> AccesoAGrupo : Solicitud Aprobada
c --> CrearNotificacionDeRechazo : Solicitud Rechazada
AccesoAGrupo --> PaginaDeGrupo : visualizar pagina de grupo

SesionActiva -> SistemaDeNotificaciones: Crear Notificación
SistemaDeNotificaciones --> RevisarNotificaciones: Ver notificaciones


SesionActiva -> CalendarioDeEventos: Ver Calendario

CalendarioDeEventos --> VisualizarEventos: Visualizar
CalendarioDeEventos -> CreacionDeEventos : Crear Evento 
CreacionDeEventos --> EventoEnEdicion: Iniciar Edición
EventoEnEdicion --> PublicandoEvento: publicar evento
EventoEnEdicion --> CreacionDeEventos: cancelar edicion
PublicandoEvento --> AgregarEvento : agregar al calendario

@enduml